<?xml version="1.0" standalone="no"?>
<!DOCTYPE svg PUBLIC "-//W3C//DTD SVG 20010904//EN"
 "http://www.w3.org/TR/2001/REC-SVG-20010904/DTD/svg10.dtd">
<svg version="1.0" xmlns="http://www.w3.org/2000/svg"
 width="881.000000pt" height="441.000000pt" viewBox="0 0 881.000000 441.000000"
 preserveAspectRatio="xMidYMid meet">

<g transform="translate(0.000000,441.000000) scale(0.100000,-0.100000)"
fill="#000000" stroke="none">
<path d="M4490 4003 c-87 -18 -230 -115 -251 -170 -7 -19 -16 -23 -52 -23 -57
0 -102 -30 -142 -94 -26 -44 -30 -58 -30 -125 0 -89 22 -145 68 -170 58 -32
61 -37 60 -82 -3 -54 -19 -87 -55 -105 -37 -19 -56 -18 -183 11 -135 30 -204
32 -236 6 -19 -15 -21 -22 -13 -42 9 -20 17 -23 60 -21 67 4 174 -20 264 -59
49 -21 97 -34 138 -36 l62 -5 0 -36 c0 -80 -72 -263 -120 -307 -19 -17 -21
-17 -38 -2 -47 42 -78 4 -68 -84 4 -45 1 -67 -14 -101 -13 -28 -20 -65 -20
-105 0 -93 34 -159 136 -260 l83 -81 -11 -61 c-13 -67 1 -160 28 -181 19 -17
18 -5 -3 27 -20 31 -23 149 -5 195 l11 26 50 -26 51 -27 1 -70 c1 -38 5 -83 9
-100 4 -16 5 12 2 64 l-5 93 24 -7 c81 -27 109 -33 109 -25 0 4 -18 11 -40 15
-22 4 -56 18 -76 31 -35 24 -127 73 -141 76 -5 0 -24 11 -43 23 -48 30 -105
99 -140 169 -60 119 -36 217 93 386 80 104 115 180 134 288 15 83 18 91 42 97
41 10 102 49 152 98 l47 44 68 -23 c131 -44 241 -24 304 56 17 21 30 42 30 47
0 5 13 10 29 10 17 0 43 11 62 27 28 24 39 27 73 22 24 -4 42 -3 46 4 4 7 19
5 45 -6 26 -11 52 -14 81 -9 41 6 42 5 49 -24 3 -16 1 -103 -5 -193 -9 -139
-21 -227 -57 -436 -3 -19 -16 -40 -30 -50 -14 -9 -59 -42 -101 -73 l-77 -57
-34 40 c-36 42 -119 88 -159 88 -74 0 -83 -56 -22 -136 22 -30 54 -64 70 -76
17 -12 30 -25 30 -29 0 -4 -24 -41 -53 -82 -58 -80 -127 -209 -147 -272 -19
-61 -25 -65 -104 -67 l-71 -2 60 -3 c88 -6 100 0 120 54 28 77 107 222 160
296 49 67 50 68 86 62 46 -8 80 20 78 63 l-2 27 -4 -27 c-5 -31 -12 -34 -32
-15 -11 10 -12 8 -2 -10 17 -33 -14 -38 -68 -11 -60 30 -151 137 -151 177 0
21 6 32 21 36 53 17 170 -49 204 -115 l14 -28 41 39 c22 21 86 69 143 107 56
38 103 75 105 84 3 16 -18 43 -38 50 -7 2 -6 32 4 93 22 132 36 283 36 399 0
96 2 104 24 125 77 72 75 226 -5 368 -16 29 -29 62 -29 74 0 32 -45 86 -92
110 -48 24 -90 20 -125 -13 -19 -18 -26 -20 -48 -10 -82 38 -214 65 -325 68
-63 1 -126 0 -140 -3z m117 -28 c36 -7 105 -78 121 -124 l10 -29 -81 -17 c-45
-10 -103 -25 -129 -35 l-48 -18 -32 30 c-42 39 -100 68 -138 68 -16 0 -30 4
-30 9 0 13 53 56 107 87 41 25 136 45 173 38 8 -1 30 -5 47 -9z m239 -19 c81
-26 114 -48 114 -77 0 -20 -9 -23 -110 -39 -93 -14 -97 -13 -109 20 -15 44
-49 89 -85 112 l-31 20 72 -6 c40 -3 107 -17 149 -30z m301 -22 c30 -22 63
-70 63 -91 0 -4 -13 7 -29 25 -34 37 -81 43 -119 16 -22 -15 -25 -15 -48 7
l-25 24 32 28 c37 34 73 32 126 -9z m-147 -54 c9 -16 8 -20 -5 -20 -8 0 -15 9
-15 20 0 11 2 20 5 20 2 0 9 -9 15 -20z m195 -60 c43 -42 96 -165 102 -241 8
-82 -23 -144 -85 -171 -51 -23 -106 -20 -144 6 -22 16 -22 16 23 16 37 0 54 7
85 31 47 37 50 42 64 104 17 75 -1 134 -56 185 -38 35 -49 40 -91 40 -60 -1
-93 -16 -128 -57 -36 -45 -46 -85 -34 -146 10 -54 6 -61 -38 -73 -26 -7 -66
-82 -65 -122 1 -65 -76 -155 -143 -168 -60 -11 -166 1 -212 24 -46 24 -82 85
-108 183 -29 108 -14 180 49 244 70 70 118 88 366 135 317 60 362 61 415 10z
m-849 5 c20 -8 54 -29 76 -47 l41 -32 -36 -30 c-19 -17 -48 -51 -63 -76 -26
-40 -29 -55 -30 -130 l-1 -85 -39 -11 -40 -11 24 47 c16 34 25 73 29 128 8
111 -3 169 -36 203 -50 50 -3 77 75 44z m-106 -40 c17 -9 30 -20 30 -24 0 -5
3 -17 7 -27 6 -17 5 -17 -17 -1 -32 22 -58 21 -97 -3 -53 -32 -69 -129 -34
-207 22 -47 70 -78 107 -69 30 8 31 -8 2 -28 -29 -20 -100 -20 -138 -1 -46 24
-74 87 -75 166 0 56 4 73 30 115 53 85 119 113 185 79z m912 -26 c36 -19 71
-79 76 -128 6 -64 -12 -113 -54 -151 -28 -24 -43 -30 -82 -30 -42 0 -53 5 -89
40 -79 75 -84 179 -11 247 44 42 107 50 160 22z m-112 -340 c0 -16 -8 -19 -51
-19 -43 0 -57 -5 -85 -30 -40 -35 -64 -30 -64 12 0 51 15 67 57 61 30 -4 42 0
56 15 l19 20 34 -20 c20 -12 34 -28 34 -39z m-681 -40 c6 -17 8 -35 6 -40 -10
-15 -93 -21 -149 -9 -49 10 -56 14 -56 36 0 23 3 24 63 25 34 0 71 4 82 9 34
15 43 11 54 -21z m-79 -74 c25 0 59 3 76 7 29 6 33 4 45 -24 13 -31 12 -32
-39 -79 -65 -60 -149 -101 -216 -107 -42 -3 -63 1 -102 21 -76 38 -220 78
-297 82 -38 2 -72 6 -75 9 -2 3 1 13 9 22 11 14 27 16 95 11 45 -3 120 -15
168 -27 70 -17 94 -19 126 -10 40 11 76 47 86 86 5 20 10 22 42 16 21 -4 57
-7 82 -7z m931 -546 c12 -23 10 -25 -35 -50 -17 -10 -18 -9 -13 12 4 13 7 32
7 42 0 24 27 21 41 -4z m-1191 -29 c8 -16 5 -27 -18 -59 -16 -22 -32 -37 -36
-34 -8 8 -8 76 0 97 9 22 41 20 54 -4z"/>
<path d="M4553 3720 c-96 -20 -153 -97 -161 -217 -4 -64 -2 -77 21 -115 46
-79 125 -115 232 -106 136 11 209 151 159 304 -36 107 -132 158 -251 134z
m136 -26 c70 -28 111 -107 111 -213 0 -69 -40 -134 -102 -167 -37 -19 -132
-18 -171 2 -55 29 -98 66 -93 81 3 8 2 11 -3 8 -15 -9 -20 24 -17 107 4 95 28
137 100 173 58 29 118 32 175 9z"/>
<path d="M4608 3683 c7 -3 16 -2 19 1 4 3 -2 6 -13 5 -11 0 -14 -3 -6 -6z"/>
<path d="M4602 3558 c-22 -22 -15 -76 13 -94 52 -34 115 29 81 81 -18 28 -72
35 -94 13z"/>
<path d="M5010 3660 c-25 -25 -26 -62 -2 -83 39 -35 102 -9 102 41 0 28 -34
62 -60 62 -11 0 -29 -9 -40 -20z"/>
<path d="M4418 2013 c6 -2 18 -2 25 0 6 3 1 5 -13 5 -14 0 -19 -2 -12 -5z"/>
<path d="M4222 1890 c-1 -15 -7 -31 -14 -38 -9 -9 -5 -12 19 -12 18 0 34 4 37
9 4 5 -3 7 -13 4 -16 -4 -20 1 -24 29 -3 25 -4 27 -5 8z"/>
</g>
</svg>
