<?xml version="1.0" standalone="no"?>
<!DOCTYPE svg PUBLIC "-//W3C//DTD SVG 20010904//EN"
 "http://www.w3.org/TR/2001/REC-SVG-20010904/DTD/svg10.dtd">
<svg version="1.0" xmlns="http://www.w3.org/2000/svg"
 width="1200.000000pt" height="464.000000pt" viewBox="0 0 1200.000000 464.000000"
 preserveAspectRatio="xMidYMid meet">

<g transform="translate(0.000000,464.000000) scale(0.100000,-0.100000)"
fill="#000000" stroke="none">
<path d="M0 2320 l0 -2320 6000 0 6000 0 0 2320 0 2320 -6000 0 -6000 0 0
-2320z m4576 2258 c17 -27 -2 -574 -32 -893 -59 -641 -197 -1108 -408 -1380
-24 -31 -228 -245 -452 -476 -225 -231 -410 -426 -412 -433 -2 -8 3 -20 11
-27 8 -8 180 -176 383 -374 202 -198 451 -441 552 -540 101 -99 222 -216 269
-261 68 -64 84 -85 81 -105 l-3 -24 -235 2 c-936 9 -1647 157 -2000 417 -85
62 -235 200 -470 430 -118 116 -277 272 -353 346 -77 74 -143 143 -148 152
-16 29 -9 101 14 158 89 217 390 480 773 677 l72 37 36 -32 c47 -41 76 -40
120 2 30 28 36 40 36 75 0 31 -6 48 -24 66 l-25 25 41 92 c271 626 321 1116
142 1414 l-35 59 73 -71 c40 -39 203 -198 362 -353 160 -154 293 -281 297
-281 4 0 295 295 646 655 632 648 666 680 689 643z m-3040 -1306 c87 -30 163
-83 272 -187 152 -145 277 -318 411 -567 l52 -96 -26 -26 -25 -25 -88 38
c-563 246 -1010 311 -1320 191 -42 -16 -95 -42 -117 -56 l-40 -27 25 29 c13
16 112 119 220 229 107 110 260 267 340 349 80 81 154 152 165 156 32 14 76
11 131 -8z"/>
</g>
</svg>
